# Blender v2.75 (sub 0) OBJ File: ''
# www.blender.org
o Cylinder.003
v 0.000000 0.562500 0.000000
v 0.000000 0.562500 -0.800000
v -0.281250 0.487139 -0.800000
v -0.281250 0.487139 0.000000
v -0.487139 0.281250 -0.800000
v -0.487140 0.281250 0.000000
v -0.562500 0.000000 -0.800000
v -0.562500 0.000000 0.000000
v 0.562500 0.000000 0.000000
v 0.562500 0.000000 -0.800000
v 0.487139 0.281250 -0.800000
v 0.487140 0.281250 0.000000
v 0.281250 0.487139 0.000000
v 0.281250 0.487139 -0.800000
v -0.584567 0.337500 -0.800000
v -0.675000 0.000000 -0.800000
v -0.337500 0.584567 -0.800000
v 0.000000 0.675000 -0.800000
v 0.337500 0.584567 -0.800000
v 0.584567 0.337500 -0.800000
v 0.675000 0.000000 -0.800000
v -0.675000 0.000000 -1.000000
v -0.584567 0.337500 -1.000000
v -0.337500 0.584567 -1.000000
v 0.000000 0.675000 -1.000000
v 0.337500 0.584567 -1.000000
v 0.584567 0.337500 -1.000000
v 0.675000 0.000000 -1.000000
v -0.487139 -0.000000 0.281250
v -0.421875 0.281250 0.243570
v -0.281250 -0.000000 0.487139
v -0.243569 0.281250 0.421875
v 0.000000 -0.000000 0.562500
v 0.000000 0.281250 0.487139
v 0.281250 -0.000000 0.487139
v 0.243570 0.281250 0.421875
v 0.487139 -0.000000 0.281250
v 0.421875 0.281250 0.243569
v 0.243570 0.487139 0.140625
v 0.140625 0.487139 0.243570
v 0.000000 0.487139 0.281250
v -0.140625 0.487139 0.243570
v -0.243570 0.487139 0.140626
vn -0.258800 0.965900 0.000000
vn -0.707100 0.707100 -0.000000
vn -0.965900 0.258800 -0.000000
vn 0.965900 0.258800 -0.000000
vn 0.258800 0.965900 0.000000
vn 0.707100 0.707100 -0.000000
vn 0.000000 -0.000000 1.000000
vn -0.000000 0.000000 -1.000000
vn -0.935100 0.250600 0.250600
vn -0.684500 0.250600 0.684600
vn -0.250600 0.250600 0.935100
vn 0.250600 0.250600 0.935100
vn 0.684600 0.250600 0.684500
vn 0.935100 0.250600 0.250600
vn 0.694700 0.694700 0.186200
vn 0.258200 0.963600 0.069200
vn 0.189000 0.963600 0.189000
vn 0.069200 0.963600 0.258200
vn -0.069200 0.963600 0.258200
vn -0.189000 0.963600 0.189000
vn -0.258200 0.963600 0.069200
vn -0.694700 0.694700 0.186200
vn -0.508600 0.694700 0.508600
vn -0.186200 0.694700 0.694700
vn 0.186200 0.694700 0.694700
vn 0.508600 0.694700 0.508600
s 1
f 1//1 2//1 3//1 4//1
f 4//2 3//2 5//2 6//2
f 6//3 5//3 7//3 8//3
f 9//4 10//4 11//4 12//4
f 13//5 14//5 2//5 1//5
f 12//6 11//6 14//6 13//6
f 15//7 16//7 7//7 5//7
f 17//7 15//7 5//7 3//7
f 18//7 17//7 3//7 2//7
f 19//7 18//7 2//7 14//7
f 20//7 19//7 14//7 11//7
f 21//7 20//7 11//7 10//7
f 22//3 16//3 15//3 23//3
f 23//2 15//2 17//2 24//2
f 24//1 17//1 18//1 25//1
f 25//5 18//5 19//5 26//5
f 26//6 19//6 20//6 27//6
f 27//4 20//4 21//4 28//4
f 22//8 23//8 24//8 25//8 26//8 27//8 28//8
f 8//9 29//9 30//9 6//9
f 31//10 32//10 30//10 29//10
f 31//11 33//11 34//11 32//11
f 33//12 35//12 36//12 34//12
f 35//13 37//13 38//13 36//13
f 9//14 12//14 38//14 37//14
f 12//15 13//15 39//15 38//15
f 1//16 39//16 13//16
f 39//17 1//17 40//17
f 41//18 40//18 1//18
f 41//19 1//19 42//19
f 42//20 1//20 43//20
f 4//21 43//21 1//21
f 6//22 30//22 43//22 4//22
f 32//23 42//23 43//23 30//23
f 32//24 34//24 41//24 42//24
f 36//25 40//25 41//25 34//25
f 36//26 38//26 39//26 40//26
