# Blender v2.75 (sub 0) OBJ File: ''
# www.blender.org
o Cylinder.001
v 0.000000 0.562500 0.000000
v 0.800000 0.562500 0.000000
v 0.800000 0.487139 -0.281250
v 0.281250 0.487139 -0.281250
v 0.800000 0.281250 -0.487139
v 0.487140 0.281250 -0.487140
v 0.800000 0.000000 -0.562500
v 0.562500 0.000000 -0.562500
v 0.000000 -0.000000 0.562500
v 0.800000 -0.000000 0.562500
v 0.800000 0.281250 0.487139
v 0.000000 0.281250 0.487140
v 0.000000 0.487139 0.281250
v 0.800000 0.487139 0.281250
v 0.800000 0.337500 -0.584567
v 0.800000 0.000000 -0.675000
v 0.800000 0.584567 -0.337500
v 0.800000 0.675000 0.000000
v 0.800000 0.584567 0.337500
v 0.800000 0.337500 0.584567
v 0.800000 -0.000000 0.675000
v 1.000000 0.000000 -0.675000
v 1.000000 0.337500 -0.584567
v 1.000000 0.584567 -0.337500
v 1.000000 0.675000 0.000000
v 1.000000 0.584567 0.337500
v 1.000000 0.337500 0.584567
v 1.000000 -0.000000 0.675000
v -0.281250 0.487139 0.000000
v -0.281250 0.487139 -0.800000
v -0.487139 0.281250 -0.800000
v -0.487140 0.281250 0.000000
v -0.562500 0.000000 -0.800000
v -0.562500 0.000000 0.000000
v 0.562500 0.000000 -0.800000
v 0.487139 0.281250 -0.800000
v 0.281250 0.487139 -0.800000
v -0.584567 0.337500 -0.800000
v -0.675000 0.000000 -0.800000
v -0.337500 0.584567 -0.800000
v 0.000000 0.675000 -0.800000
v 0.000000 0.562500 -0.800000
v 0.337500 0.584567 -0.800000
v 0.584567 0.337500 -0.800000
v 0.675000 0.000000 -0.800000
v -0.675000 0.000000 -1.000000
v -0.584567 0.337500 -1.000000
v -0.337500 0.584567 -1.000000
v 0.000000 0.675000 -1.000000
v 0.337500 0.584567 -1.000000
v 0.584567 0.337500 -1.000000
v 0.675000 0.000000 -1.000000
v -0.487139 -0.000000 0.281250
v -0.421875 0.281250 0.243570
v -0.281250 -0.000000 0.487139
v -0.243569 0.281250 0.421875
v -0.140625 0.487139 0.243570
v -0.243570 0.487139 0.140626
vn -0.000000 0.965900 -0.258800
vn 0.000000 0.707100 -0.707100
vn 0.000000 0.258800 -0.965900
vn 0.000000 0.258800 0.965900
vn 0.000000 0.965900 0.258800
vn 0.000000 0.707100 0.707100
vn -1.000000 -0.000000 0.000000
vn 1.000000 -0.000000 0.000000
vn -0.707100 0.707100 -0.000000
vn -0.965900 0.258800 -0.000000
vn 0.965900 0.258800 -0.000000
vn 0.707100 0.707100 -0.000000
vn 0.000000 -0.000000 1.000000
vn -0.258800 0.965900 0.000000
vn 0.258800 0.965900 0.000000
vn -0.000000 0.000000 -1.000000
vn -0.935100 0.250600 0.250600
vn -0.684500 0.250600 0.684600
vn -0.069200 0.963600 0.258200
vn -0.694700 0.694700 0.186200
vn -0.508600 0.694700 0.508600
vn -0.186200 0.694700 0.694700
vn -0.189000 0.963600 0.189000
vn -0.258200 0.963600 0.069200
vn -0.250600 0.250600 0.935100
s 1
f 1//1 2//1 3//1 4//1
f 4//2 3//2 5//2 6//2
f 6//3 5//3 7//3 8//3
f 9//4 10//4 11//4 12//4
f 13//5 14//5 2//5 1//5
f 12//6 11//6 14//6 13//6
f 15//7 16//7 7//7 5//7
f 17//7 15//7 5//7 3//7
f 18//7 17//7 3//7 2//7
f 19//7 18//7 2//7 14//7
f 20//7 19//7 14//7 11//7
f 21//7 20//7 11//7 10//7
f 22//3 16//3 15//3 23//3
f 23//2 15//2 17//2 24//2
f 24//1 17//1 18//1 25//1
f 25//5 18//5 19//5 26//5
f 26//6 19//6 20//6 27//6
f 27//4 20//4 21//4 28//4
f 22//8 23//8 24//8 25//8 26//8 27//8 28//8
f 29//9 30//9 31//9 32//9
f 32//10 31//10 33//10 34//10
f 8//11 35//11 36//11 6//11
f 6//12 36//12 37//12 4//12
f 38//13 39//13 33//13 31//13
f 40//13 38//13 31//13 30//13
f 41//13 40//13 30//13 42//13
f 43//13 41//13 42//13 37//13
f 44//13 43//13 37//13 36//13
f 45//13 44//13 36//13 35//13
f 46//10 39//10 38//10 47//10
f 47//9 38//9 40//9 48//9
f 48//14 40//14 41//14 49//14
f 49//15 41//15 43//15 50//15
f 50//12 43//12 44//12 51//12
f 51//11 44//11 45//11 52//11
f 46//16 47//16 48//16 49//16 50//16 51//16 52//16
f 34//17 53//17 54//17 32//17
f 55//18 56//18 54//18 53//18
f 13//19 1//19 57//19
f 32//20 54//20 58//20 29//20
f 56//21 57//21 58//21 54//21
f 56//22 12//22 13//22 57//22
f 1//14 42//14 30//14 29//14
f 57//23 1//23 58//23
f 29//24 58//24 1//24
f 4//15 37//15 42//15 1//15
f 55//25 9//25 12//25 56//25
