# Blender v2.75 (sub 0) OBJ File: ''
# www.blender.org
o Cylinder.005
v 0.000000 0.562500 -0.800000
v 0.000000 0.562500 0.800000
v 0.281250 0.487139 0.800000
v 0.281250 0.487139 -0.800000
v 0.487139 0.281250 0.800000
v 0.487139 0.281250 -0.800000
v 0.562500 -0.000000 0.800000
v 0.562500 0.000000 -0.800000
v -0.562500 0.000000 -0.800000
v -0.562500 -0.000000 0.800000
v -0.487139 0.281250 0.800000
v -0.487139 0.281250 -0.800000
v -0.281250 0.487139 -0.800000
v -0.281250 0.487139 0.800000
v -0.675000 0.000000 -0.800000
v -0.584567 0.337499 -0.800000
v -0.584567 0.337499 -1.000000
v -0.675000 0.000000 -1.000000
v -0.337501 0.584567 -0.800000
v 0.000000 0.675000 -0.800000
v -0.337501 0.584567 -1.000000
v 0.675000 0.000000 -0.800000
v 0.584567 0.337500 -0.800000
v 0.337500 0.584567 -0.800000
v 0.000000 0.675000 -1.000000
v 0.337500 0.584567 -1.000000
v 0.584567 0.337500 -1.000000
v 0.675000 0.000000 -1.000000
v 0.584567 0.337500 0.800000
v 0.675000 -0.000000 0.800000
v 0.337500 0.584567 0.800000
v 0.000000 0.675000 0.800000
v -0.337501 0.584567 0.800000
v -0.584567 0.337500 0.800000
v -0.675000 -0.000000 0.800000
v 0.675000 -0.000000 1.000000
v 0.584567 0.337500 1.000000
v 0.337500 0.584567 1.000000
v 0.000000 0.675000 1.000000
v -0.337501 0.584567 1.000000
v -0.584567 0.337500 1.000000
v -0.675000 -0.000000 1.000000
vn 0.258800 0.965900 0.000000
vn 0.707100 0.707100 0.000000
vn 0.965900 0.258800 0.000000
vn -0.965900 0.258800 0.000000
vn -0.258800 0.965900 0.000000
vn -0.707100 0.707100 0.000000
vn 0.000000 -0.000000 1.000000
vn 0.000000 0.000000 -1.000000
s 1
f 1//1 2//1 3//1 4//1
f 4//2 3//2 5//2 6//2
f 6//3 5//3 7//3 8//3
f 9//4 10//4 11//4 12//4
f 13//5 14//5 2//5 1//5
f 12//6 11//6 14//6 13//6
f 15//7 9//7 12//7 16//7
f 16//4 17//4 18//4 15//4
f 19//7 16//7 12//7 13//7
f 20//7 19//7 13//7 1//7
f 19//6 21//6 17//6 16//6
f 22//7 23//7 6//7 8//7
f 23//7 24//7 4//7 6//7
f 4//7 24//7 20//7 1//7
f 21//5 19//5 20//5 25//5
f 26//1 25//1 20//1 24//1
f 27//2 26//2 24//2 23//2
f 28//3 27//3 23//3 22//3
f 17//8 21//8 25//8 26//8 27//8 28//8 18//8
f 29//8 30//8 7//8 5//8
f 31//8 29//8 5//8 3//8
f 32//8 31//8 3//8 2//8
f 33//8 32//8 2//8 14//8
f 34//8 33//8 14//8 11//8
f 35//8 34//8 11//8 10//8
f 36//3 30//3 29//3 37//3
f 37//2 29//2 31//2 38//2
f 38//1 31//1 32//1 39//1
f 39//5 32//5 33//5 40//5
f 40//6 33//6 34//6 41//6
f 41//4 34//4 35//4 42//4
f 36//7 37//7 38//7 39//7 40//7 41//7 42//7
