# Blender v2.75 (sub 0) OBJ File: ''
# www.blender.org
o Cylinder.005
v 0.000000 0.750000 -0.800000
v 0.000000 0.750000 0.800000
v 0.375000 0.649519 0.800000
v 0.375000 0.649519 -0.800000
v 0.649519 0.375000 0.800000
v 0.649519 0.375000 -0.800000
v 0.750000 -0.000000 0.800000
v 0.750000 0.000000 -0.800000
v -0.900000 0.000000 -1.000000
v 0.900000 0.000000 -1.000000
v -0.750000 0.000000 -0.800000
v -0.750000 -0.000000 0.800000
v -0.649519 0.375000 0.800000
v -0.649519 0.375000 -0.800000
v -0.375000 0.649519 -0.800000
v -0.375000 0.649519 0.800000
v -0.900000 0.000000 -0.800000
v -0.779423 0.449999 -0.800000
v -0.779423 0.449999 -1.000000
v -0.450001 0.779422 -0.800000
v 0.000000 0.900000 -0.800000
v -0.450001 0.779422 -1.000000
v 0.900000 0.000000 -0.800000
v 0.779423 0.450000 -0.800000
v 0.450000 0.779423 -0.800000
v 0.000000 0.900000 -1.000000
v 0.450000 0.779423 -1.000000
v 0.779423 0.450000 -1.000000
v 0.900000 -0.000000 0.800000
v 0.900000 -0.000000 1.000000
v 0.779423 0.450000 0.800000
v 0.450000 0.779423 0.800000
v 0.000000 0.900000 0.800000
v -0.450001 0.779423 0.800000
v -0.779423 0.450000 0.800000
v -0.900000 -0.000000 0.800000
v -0.900000 -0.000000 1.000000
v 0.779423 0.450000 1.000000
v 0.450000 0.779423 1.000000
v 0.000000 0.900000 1.000000
v -0.450001 0.779423 1.000000
v -0.779423 0.450000 1.000000
vn 0.258800 0.965900 0.000000
vn 0.707100 0.707100 0.000000
vn 0.965900 0.258800 0.000000
vn -0.965900 0.258800 0.000000
vn -0.258800 0.965900 0.000000
vn -0.707100 0.707100 0.000000
vn 0.000000 -0.000000 1.000000
vn 0.000000 0.000000 -1.000000
s 1
f 1//1 2//1 3//1 4//1
f 4//2 3//2 5//2 6//2
f 6//3 5//3 7//3 8//3
f 11//4 12//4 13//4 14//4
f 15//5 16//5 2//5 1//5
f 14//6 13//6 16//6 15//6
f 17//7 11//7 14//7 18//7
f 18//4 19//4 9//4 17//4
f 20//7 18//7 14//7 15//7
f 21//7 20//7 15//7 1//7
f 20//6 22//6 19//6 18//6
f 23//7 24//7 6//7 8//7
f 24//7 25//7 4//7 6//7
f 4//7 25//7 21//7 1//7
f 22//5 20//5 21//5 26//5
f 27//1 26//1 21//1 25//1
f 28//2 27//2 25//2 24//2
f 10//3 28//3 24//3 23//3
f 19//8 22//8 26//8 27//8 28//8 10//8 9//8
f 31//8 29//8 7//8 5//8
f 32//8 31//8 5//8 3//8
f 33//8 32//8 3//8 2//8
f 34//8 33//8 2//8 16//8
f 35//8 34//8 16//8 13//8
f 36//8 35//8 13//8 12//8
f 30//3 29//3 31//3 38//3
f 38//2 31//2 32//2 39//2
f 39//1 32//1 33//1 40//1
f 40//5 33//5 34//5 41//5
f 41//6 34//6 35//6 42//6
f 42//4 35//4 36//4 37//4
f 30//7 38//7 39//7 40//7 41//7 42//7 37//7
