# Blender v2.75 (sub 0) OBJ File: ''
# www.blender.org
v 0.205725 0.283156 -0.100000
v 0.205725 0.283156 0.100000
v 0.332870 0.108156 -0.100000
v 0.332870 0.108156 0.100000
v 0.332870 -0.108156 -0.100000
v 0.332870 -0.108156 0.100000
v 0.205725 -0.283156 -0.100000
v 0.205725 -0.283156 0.100000
v -0.000000 -0.350000 -0.100000
v -0.000000 -0.350000 0.100000
v -0.205725 -0.283156 -0.100000
v -0.205725 -0.283156 0.100000
v -0.332870 -0.108156 -0.100000
v -0.332870 -0.108156 0.100000
v -0.332870 0.108156 -0.100000
v -0.332870 0.108156 0.100000
v -0.205725 0.283156 -0.100000
v -0.205725 0.283156 0.100000
v 0.000000 0.350000 -0.100000
v 0.000000 0.350000 0.100000
v 0.377653 -0.174115 0.075000
v 0.377653 -0.174115 -0.075000
v 0.282294 -0.305365 -0.075000
v 0.282294 -0.305365 0.075000
v 0.203185 -0.362841 0.075000
v 0.203185 -0.362841 -0.075000
v 0.048892 -0.412974 -0.075000
v 0.048892 -0.412974 0.075000
v -0.048892 -0.412974 0.075000
v -0.048892 -0.412974 -0.075000
v -0.203186 -0.362841 -0.075000
v -0.203186 -0.362841 0.075000
v -0.282294 -0.305365 0.075000
v -0.282294 -0.305365 -0.075000
v -0.377653 -0.174115 -0.075000
v -0.377653 -0.174115 0.075000
v -0.407870 -0.081117 0.075000
v -0.407870 -0.081117 -0.075000
v -0.407870 0.081117 -0.075000
v -0.407870 0.081117 0.075000
v -0.377653 0.174115 0.075000
v -0.377653 0.174115 -0.075000
v -0.282294 0.305365 -0.075000
v -0.282294 0.305365 0.075000
v -0.203185 0.362841 0.075000
v -0.203185 0.362841 -0.075000
v -0.048892 0.412974 -0.075000
v -0.048892 0.412974 0.075000
v 0.203186 0.362841 -0.075000
v 0.203186 0.362841 0.075000
v 0.048892 0.412974 0.075000
v 0.048892 0.412974 -0.075000
v 0.377653 0.174115 -0.075000
v 0.282294 0.305365 -0.075000
v 0.282294 0.305365 0.075000
v 0.377653 0.174115 0.075000
v 0.407870 0.081117 0.075000
v 0.407870 0.081117 -0.075000
v 0.407870 -0.081117 -0.075000
v 0.407870 -0.081117 0.075000
vt 0.711580 0.228790
vt 0.565848 0.228790
vt 0.584064 0.175528
vt 0.693363 0.175528
vt 0.021210 0.192371
vt 0.021210 0.057629
vt 0.074922 0.074472
vt 0.074922 0.175528
vt 0.021210 0.442371
vt 0.021210 0.307629
vt 0.074922 0.324472
vt 0.074922 0.425528
vt 0.056705 0.521210
vt 0.202437 0.521210
vt 0.184221 0.574472
vt 0.074922 0.574472
vt 0.539495 0.451514
vt 0.539495 0.316771
vt 0.593207 0.333614
vt 0.593207 0.434671
vt 0.202437 0.978790
vt 0.056705 0.978790
vt 0.074922 0.925528
vt 0.184221 0.925528
vt 0.451514 0.237932
vt 0.316771 0.237932
vt 0.333614 0.184221
vt 0.434671 0.184221
vt 0.497075 0.566771
vt 0.497075 0.701514
vt 0.443363 0.684671
vt 0.443363 0.583614
vt 0.315848 0.280353
vt 0.461580 0.280353
vt 0.443363 0.333614
vt 0.334064 0.333614
vt 0.539495 0.711579
vt 0.539495 0.565848
vt 0.592757 0.584064
vt 0.592757 0.693363
vt 0.184221 0.324472
vt 0.184221 0.425528
vt 0.056705 0.271210
vt 0.202437 0.271210
vt 0.202437 0.478790
vt 0.056706 0.478790
vt 0.237932 0.307629
vt 0.237932 0.442371
vt 0.184221 0.675528
vt 0.074922 0.675528
vt 0.202437 0.728790
vt 0.056705 0.728790
vt 0.237932 0.557629
vt 0.237932 0.692371
vt 0.021210 0.692371
vt 0.021210 0.557629
vt 0.702506 0.333614
vt 0.702506 0.434671
vt 0.574991 0.280353
vt 0.720722 0.280353
vt 0.720722 0.487932
vt 0.574991 0.487932
vt 0.756217 0.316771
vt 0.756217 0.451514
vt 0.184221 0.824472
vt 0.074922 0.824472
vt 0.237932 0.807629
vt 0.237932 0.942371
vt 0.021210 0.942371
vt 0.021210 0.807629
vt 0.056705 0.771210
vt 0.202437 0.771210
vt 0.333614 0.074922
vt 0.434671 0.074922
vt 0.280353 0.202437
vt 0.280353 0.056705
vt 0.487932 0.056706
vt 0.487932 0.202437
vt 0.316772 0.021210
vt 0.451514 0.021210
vt 0.334064 0.684671
vt 0.334064 0.583614
vt 0.280353 0.701514
vt 0.280353 0.566771
vt 0.315848 0.530353
vt 0.461580 0.530353
vt 0.461580 0.737932
vt 0.315848 0.737932
vt 0.334064 0.434671
vt 0.443363 0.434671
vt 0.280353 0.451514
vt 0.280353 0.316771
vt 0.497075 0.316772
vt 0.497075 0.451514
vt 0.461580 0.487932
vt 0.315848 0.487932
vt 0.693813 0.584064
vt 0.693813 0.693363
vt 0.747075 0.565848
vt 0.747075 0.711580
vt 0.575914 0.530353
vt 0.710656 0.530353
vt 0.710656 0.747075
vt 0.575914 0.747075
vt 0.693363 0.074472
vt 0.584064 0.074472
vt 0.565848 0.021210
vt 0.711580 0.021210
vt 0.530353 0.192371
vt 0.530353 0.057629
vt 0.747075 0.057629
vt 0.747075 0.192371
vt 0.184221 0.074472
vt 0.184221 0.175528
vt 0.056705 0.021210
vt 0.202437 0.021210
vt 0.202437 0.228790
vt 0.056705 0.228790
vt 0.237932 0.057629
vt 0.237932 0.192371
vt 0.377282 0.871578
vn 0.255800 0.185900 0.948700
vn 0.339200 -0.940700 0.000000
vn -0.278600 -0.960400 0.000000
vn 0.097700 -0.300800 -0.948700
vn -0.999500 -0.031900 0.000000
vn -0.255800 -0.185900 0.948700
vn -0.339200 0.940700 -0.000000
vn -0.827300 -0.561700 0.000000
vn -0.097700 0.300800 0.948700
vn 0.097700 0.300800 -0.948700
vn 0.809000 -0.587800 0.000000
vn 0.255800 -0.185900 -0.948700
vn 0.255800 -0.185900 0.948700
vn 0.827300 0.561700 -0.000000
vn 0.309000 -0.951100 0.000000
vn 0.097700 -0.300800 0.948700
vn 0.999500 -0.031900 0.000000
vn -0.789900 -0.613300 0.000000
vn -0.309000 -0.951100 0.000000
vn -0.097700 -0.300800 -0.948700
vn -0.097700 -0.300800 0.948700
vn 0.789900 -0.613300 0.000000
vn -0.809000 -0.587800 0.000000
vn 0.278600 -0.960400 0.000000
vn -0.827300 0.561700 -0.000000
vn -0.255800 -0.185900 -0.948700
vn -1.000000 0.000000 -0.000000
vn -0.316200 0.000000 -0.948700
vn -0.316200 0.000000 0.948700
vn -0.339200 -0.940700 0.000000
vn -0.809000 0.587800 0.000000
vn 0.278600 0.960400 0.000000
vn -0.255800 0.185900 -0.948700
vn -0.255800 0.185900 0.948700
vn -0.309000 0.951100 0.000000
vn -0.999500 0.031900 0.000000
vn 0.789900 0.613300 0.000000
vn -0.097700 0.300800 -0.948700
vn 0.309000 0.951100 0.000000
vn 0.097700 0.300800 0.948700
vn -0.789900 0.613300 0.000000
vn 0.999500 0.031900 0.000000
vn 0.809000 0.587800 0.000000
vn 0.255800 0.185900 -0.948700
vn 0.827300 -0.561700 0.000000
vn -0.278600 0.960400 0.000000
vn 1.000000 0.000000 -0.000000
vn 0.316200 0.000000 -0.948700
vn 0.316200 0.000000 0.948700
vn 0.339200 0.940700 -0.000000
vn -0.000000 0.000000 1.000000
vn 0.000000 -0.000000 -1.000000
s off
f 2/1/1 4/2/1 56/3/1 55/4/1
f 6/5/2 5/6/2 59/7/2 60/8/2
f 8/9/3 7/10/3 23/11/3 24/12/3
f 9/13/4 7/14/4 26/15/4 27/16/4
f 12/17/5 11/18/5 31/19/5 32/20/5
f 12/21/6 14/22/6 36/23/6 33/24/6
f 16/25/7 15/26/7 39/27/7 40/28/7
f 15/29/8 16/30/8 41/31/8 42/32/8
f 18/33/9 20/34/9 48/35/9 45/36/9
f 1/37/10 19/38/10 52/39/10 49/40/10
f 22/41/11 21/42/11 24/12/11 23/11/11
f 7/43/12 5/44/12 22/41/12 23/11/12
f 6/45/13 8/46/13 24/12/13 21/42/13
f 5/47/14 6/48/14 21/42/14 22/41/14
f 26/15/15 25/49/15 28/50/15 27/16/15
f 8/51/16 10/52/16 28/50/16 25/49/16
f 7/53/17 8/54/17 25/49/17 26/15/17
f 10/55/18 9/56/18 27/16/18 28/50/18
f 30/57/19 29/58/19 32/20/19 31/19/19
f 11/59/20 9/60/20 30/57/20 31/19/20
f 10/61/21 12/62/21 32/20/21 29/58/21
f 9/63/22 10/64/22 29/58/22 30/57/22
f 34/65/23 33/24/23 36/23/23 35/66/23
f 11/67/24 12/68/24 33/24/24 34/65/24
f 14/69/25 13/70/25 35/66/25 36/23/25
f 13/71/26 11/72/26 34/65/26 35/66/26
f 38/73/27 37/74/27 40/28/27 39/27/27
f 15/75/28 13/76/28 38/73/28 39/27/28
f 14/77/29 16/78/29 40/28/29 37/74/29
f 13/79/30 14/80/30 37/74/30 38/73/30
f 42/32/31 41/31/31 44/81/31 43/82/31
f 18/83/32 17/84/32 43/82/32 44/81/32
f 17/85/33 15/86/33 42/32/33 43/82/33
f 16/87/34 18/88/34 44/81/34 41/31/34
f 46/89/35 45/36/35 48/35/35 47/90/35
f 17/91/36 18/92/36 45/36/36 46/89/36
f 20/93/37 19/94/37 47/90/37 48/35/37
f 19/95/38 17/96/38 46/89/38 47/90/38
f 52/39/39 51/97/39 50/98/39 49/40/39
f 20/99/40 2/100/40 50/98/40 51/97/40
f 19/101/41 20/102/41 51/97/41 52/39/41
f 2/103/42 1/104/42 49/40/42 50/98/42
f 54/105/43 55/4/43 56/3/43 53/106/43
f 3/107/44 1/108/44 54/105/44 53/106/44
f 4/109/45 3/110/45 53/106/45 56/3/45
f 1/111/46 2/112/46 55/4/46 54/105/46
f 58/113/47 57/114/47 60/8/47 59/7/47
f 5/115/48 3/116/48 58/113/48 59/7/48
f 4/117/49 6/118/49 60/8/49 57/114/49
f 3/119/50 4/120/50 57/114/50 58/113/50
f 2/121/51 20/121/51 18/121/51 16/121/51 14/121/51 12/121/51 10/121/51 8/121/51 6/121/51 4/121/51
f 3/121/52 5/121/52 7/121/52 9/121/52 11/121/52 13/121/52 15/121/52 17/121/52 19/121/52 1/121/52
