# Blender v2.75 (sub 0) OBJ File: ''
# www.blender.org
o Circle
v -1.000000 0.000000 -0.000000
v -0.965926 0.000000 0.258819
v -0.866026 0.000000 0.500000
v -0.707107 0.000000 0.707107
v -0.500000 0.000000 0.866025
v -0.258819 0.000000 0.965926
v -0.000000 0.000000 1.000000
v -0.885000 0.100000 0.100000
v -0.869333 0.100000 0.232937
v -0.779423 0.100000 0.450000
v -0.636396 0.100000 0.636396
v -0.450000 0.100000 0.779423
v -0.232937 0.100000 0.869333
v -0.100000 0.100000 0.885000
v -0.100000 0.100000 0.100000
v -0.000000 0.000000 0.000000
vn -0.088900 0.708100 0.700500
vn -0.271800 0.704100 0.656100
vn -0.432300 0.704100 0.563400
vn -0.563400 0.704100 0.432300
vn -0.656100 0.704100 0.271800
vn -0.700500 0.708100 0.088900
vn 0.000000 -1.000000 0.000000
vn 0.707100 0.707100 -0.000000
vn 0.000000 0.707100 -0.707100
vn 0.000000 1.000000 0.000000
s off
f 6//1 7//1 14//1 13//1
f 5//2 6//2 13//2 12//2
f 4//3 5//3 12//3 11//3
f 3//4 4//4 11//4 10//4
f 2//5 3//5 10//5 9//5
f 1//6 2//6 9//6 8//6
f 2//7 1//7 16//7 7//7 6//7 5//7 4//7 3//7
f 14//8 7//8 16//8 15//8
f 16//9 1//9 8//9 15//9
f 9//10 10//10 11//10 12//10 13//10 14//10 15//10 8//10
