# Blender v2.79 (sub 0) OBJ File: ''
# www.blender.org
g Blue_Cylinder.001
v -0.000000 0.000000 -0.062500
v -0.000000 0.050000 -0.062500
v 0.073473 0.000000 -0.101127
v 0.073473 0.050000 -0.101127
v 0.059441 0.000000 -0.019314
v 0.059441 0.050000 -0.019314
v 0.118882 0.000000 0.038627
v 0.118882 0.050000 0.038627
v 0.036737 0.000000 0.050564
v 0.036737 0.050000 0.050564
v -0.000000 0.000000 0.125000
v -0.000000 0.050000 0.125000
v -0.036737 0.000000 0.050564
v -0.036737 0.050000 0.050564
v -0.118882 0.000000 0.038627
v -0.118882 0.050000 0.038627
v -0.059441 0.000000 -0.019314
v -0.059441 0.050000 -0.019314
v -0.073473 0.000000 -0.101127
v -0.073473 0.050000 -0.101127
vn -0.4653 0.0000 -0.8851
vn 0.9856 0.0000 0.1690
vn 0.6980 0.0000 -0.7161
vn 0.1438 0.0000 0.9896
vn 0.8967 0.0000 0.4426
vn -0.8967 0.0000 0.4426
vn -0.1438 0.0000 0.9896
vn -0.6980 0.0000 -0.7161
vn 0.0000 1.0000 0.0000
vn -0.9856 0.0000 0.1690
vn 0.4653 0.0000 -0.8851
s off
f 1//1 2//1 4//1 3//1
f 3//2 4//2 6//2 5//2
f 5//3 6//3 8//3 7//3
f 7//4 8//4 10//4 9//4
f 9//5 10//5 12//5 11//5
f 11//6 12//6 14//6 13//6
f 13//7 14//7 16//7 15//7
f 15//8 16//8 18//8 17//8
f 4//9 2//9 20//9 18//9 16//9 14//9 12//9 10//9 8//9 6//9
f 17//10 18//10 20//10 19//10
f 19//11 20//11 2//11 1//11
g Yellow_Cube.002
v 0.000000 0.000000 0.125000
v 0.000000 0.050000 0.125000
v -0.108000 0.000000 -0.062000
v -0.108000 0.050000 -0.062000
v 0.108000 0.000000 -0.062000
v 0.108000 0.050000 -0.062000
vn -0.8660 0.0000 0.5001
vn 0.0000 0.0000 -1.0000
vn 0.8660 0.0000 0.5001
vn 0.0000 1.0000 0.0000
s off
f 21//12 22//12 24//12 23//12
f 23//13 24//13 26//13 25//13
f 25//14 26//14 22//14 21//14
f 26//15 24//15 22//15
g Green_Cylinder
v -0.000000 0.000000 -0.125000
v -0.000000 0.050000 -0.125000
v 0.062500 0.000000 -0.108253
v 0.062500 0.050000 -0.108253
v 0.108253 0.000000 -0.062500
v 0.108253 0.050000 -0.062500
v 0.125000 0.000000 0.000000
v 0.125000 0.050000 0.000000
v 0.108253 0.000000 0.062500
v 0.108253 0.050000 0.062500
v 0.062500 0.000000 0.108253
v 0.062500 0.050000 0.108253
v -0.000000 0.000000 0.125000
v -0.000000 0.050000 0.125000
v -0.062500 0.000000 0.108253
v -0.062500 0.050000 0.108253
v -0.108253 0.000000 0.062500
v -0.108253 0.050000 0.062500
v -0.125000 0.000000 0.000000
v -0.125000 0.050000 0.000000
v -0.108253 0.000000 -0.062500
v -0.108253 0.050000 -0.062500
v -0.062500 0.000000 -0.108253
v -0.062500 0.050000 -0.108253
vn 0.2588 0.0000 -0.9659
vn 0.7071 0.0000 -0.7071
vn 0.9659 0.0000 -0.2588
vn 0.9659 0.0000 0.2588
vn 0.7071 0.0000 0.7071
vn 0.2588 0.0000 0.9659
vn -0.2588 0.0000 0.9659
vn -0.7071 0.0000 0.7071
vn -0.9659 0.0000 0.2588
vn -0.9659 0.0000 -0.2588
vn 0.0000 1.0000 -0.0000
vn -0.7071 0.0000 -0.7071
vn -0.2588 0.0000 -0.9659
s off
f 27//16 28//16 30//16 29//16
f 29//17 30//17 32//17 31//17
f 31//18 32//18 34//18 33//18
f 33//19 34//19 36//19 35//19
f 35//20 36//20 38//20 37//20
f 37//21 38//21 40//21 39//21
f 39//22 40//22 42//22 41//22
f 41//23 42//23 44//23 43//23
f 43//24 44//24 46//24 45//24
f 45//25 46//25 48//25 47//25
f 30//26 28//26 50//26 48//26 46//26 44//26 42//26 40//26 38//26 36//26 34//26 32//26
f 47//27 48//27 50//27 49//27
f 49//28 50//28 28//28 27//28
g Red_Cube.001
v -0.125000 0.000000 0.125000
v -0.125000 0.050000 0.125000
v -0.125000 0.000000 -0.125000
v -0.125000 0.050000 -0.125000
v 0.125000 0.000000 0.125000
v 0.125000 0.050000 0.125000
v 0.125000 0.000000 -0.125000
v 0.125000 0.050000 -0.125000
vn -1.0000 0.0000 0.0000
vn 0.0000 0.0000 -1.0000
vn 1.0000 0.0000 0.0000
vn 0.0000 0.0000 1.0000
vn 0.0000 1.0000 0.0000
s off
f 51//29 52//29 54//29 53//29
f 53//30 54//30 58//30 57//30
f 57//31 58//31 56//31 55//31
f 55//32 56//32 52//32 51//32
f 58//33 54//33 52//33 56//33
