# Blender v2.75 (sub 0) OBJ File: ''
# www.blender.org
o Cylinder
v -0.000000 0.750000 0.000000
v 0.800000 0.750000 -0.000000
v 0.800000 0.649519 -0.375000
v 0.375000 0.649519 -0.375000
v 0.800000 0.375000 -0.649519
v 0.649520 0.375000 -0.649520
v 0.800000 0.000000 -0.750000
v 0.750000 0.000000 -0.750000
v 0.000000 0.000000 0.750000
v 0.800000 0.000000 0.750000
v 0.800000 0.375000 0.649519
v -0.000000 0.375000 0.649520
v -0.000000 0.649519 0.375000
v 0.800000 0.649519 0.375000
v 0.800000 0.000000 -0.900000
v 1.000000 0.000000 -0.900000
v 0.800000 0.450000 -0.779423
v 0.800000 0.779423 -0.450000
v 0.800000 0.900000 -0.000000
v 0.800000 0.779423 0.450000
v 0.800000 0.450000 0.779423
v 0.800000 0.000000 0.900000
v 1.000000 0.000000 0.900000
v 1.000000 0.450000 -0.779423
v 1.000000 0.779423 -0.450000
v 1.000000 0.900000 -0.000000
v 1.000000 0.779423 0.450000
v 1.000000 0.450000 0.779423
v 0.000000 0.750000 -0.800000
v -0.375000 0.649519 -0.800000
v -0.375000 0.649519 0.000000
v -0.649519 0.375000 -0.800000
v -0.649520 0.375000 0.000000
v -0.750000 0.000000 -0.800000
v -0.750000 0.000000 0.000000
v 0.750000 0.000000 -0.800000
v 0.649519 0.375000 -0.800000
v 0.375000 0.649519 -0.800000
v -0.900000 0.000000 -0.800000
v -0.900000 0.000000 -1.000000
v -0.779423 0.450000 -0.800000
v -0.450000 0.779423 -0.800000
v 0.000000 0.900000 -0.800000
v 0.450000 0.779423 -0.800000
v 0.779423 0.450000 -0.800000
v 0.900000 0.000000 -0.800000
v 0.900000 0.000000 -1.000000
v -0.779423 0.450000 -1.000000
v -0.450000 0.779423 -1.000000
v 0.000000 0.900000 -1.000000
v 0.450000 0.779423 -1.000000
v 0.779423 0.450000 -1.000000
v -0.649519 -0.000000 0.375000
v -0.562500 0.375000 0.324760
v -0.375000 -0.000000 0.649519
v -0.324759 0.375000 0.562500
v 0.000000 -0.000000 0.750000
v -0.187500 0.649519 0.324760
v -0.324760 0.649519 0.187501
vn -0.000000 0.965900 -0.258800
vn 0.000000 0.707100 -0.707100
vn 0.000000 0.258800 -0.965900
vn 0.000000 0.258800 0.965900
vn -0.000000 0.965900 0.258800
vn 0.000000 0.707100 0.707100
vn -1.000000 -0.000000 0.000000
vn 1.000000 0.000000 -0.000000
vn -0.707100 0.707100 -0.000000
vn -0.965900 0.258800 -0.000000
vn 0.965900 0.258800 -0.000000
vn 0.707100 0.707100 -0.000000
vn 0.000000 -0.000000 1.000000
vn -0.258800 0.965900 0.000000
vn 0.258800 0.965900 0.000000
vn 0.000000 0.000000 -1.000000
vn -0.935100 0.250600 0.250600
vn -0.684500 0.250600 0.684600
vn -0.069200 0.963600 0.258200
vn -0.694700 0.694700 0.186200
vn -0.508600 0.694700 0.508600
vn -0.186200 0.694700 0.694700
vn -0.250600 0.250600 0.935100
vn -0.189000 0.963600 0.189000
vn -0.258200 0.963600 0.069200
s 1
f 1//1 2//1 3//1 4//1
f 4//2 3//2 5//2 6//2
f 6//3 5//3 7//3 8//3
f 9//4 10//4 11//4 12//4
f 13//5 14//5 2//5 1//5
f 12//6 11//6 14//6 13//6
f 17//7 15//7 7//7 5//7
f 18//7 17//7 5//7 3//7
f 19//7 18//7 3//7 2//7
f 20//7 19//7 2//7 14//7
f 21//7 20//7 14//7 11//7
f 22//7 21//7 11//7 10//7
f 16//3 15//3 17//3 24//3
f 24//2 17//2 18//2 25//2
f 25//1 18//1 19//1 26//1
f 26//5 19//5 20//5 27//5
f 27//6 20//6 21//6 28//6
f 28//4 21//4 22//4 23//4
f 16//8 24//8 25//8 26//8 27//8 28//8 23//8
f 31//9 30//9 32//9 33//9
f 33//10 32//10 34//10 35//10
f 8//11 36//11 37//11 6//11
f 6//12 37//12 38//12 4//12
f 41//13 39//13 34//13 32//13
f 42//13 41//13 32//13 30//13
f 43//13 42//13 30//13 29//13
f 44//13 43//13 29//13 38//13
f 45//13 44//13 38//13 37//13
f 46//13 45//13 37//13 36//13
f 40//10 39//10 41//10 48//10
f 48//9 41//9 42//9 49//9
f 49//14 42//14 43//14 50//14
f 50//15 43//15 44//15 51//15
f 51//12 44//12 45//12 52//12
f 52//11 45//11 46//11 47//11
f 40//16 48//16 49//16 50//16 51//16 52//16 47//16
f 35//17 53//17 54//17 33//17
f 55//18 56//18 54//18 53//18
f 13//19 1//19 58//19
f 33//20 54//20 59//20 31//20
f 56//21 58//21 59//21 54//21
f 56//22 12//22 13//22 58//22
f 1//14 29//14 30//14 31//14
f 55//23 57//23 12//23 56//23
f 58//24 1//24 59//24
f 31//25 59//25 1//25
f 4//15 38//15 29//15 1//15
