# Blender v2.75 (sub 0) OBJ File: ''
# www.blender.org
o Cylinder.002
v 0.800000 0.750000 0.000000
v -0.800000 0.750000 0.000000
v -0.800000 0.649519 0.375000
v 0.800000 0.649519 0.375000
v -0.800000 0.375000 0.649519
v 0.800000 0.375000 0.649519
v -0.800000 -0.000000 0.750000
v 0.800000 -0.000000 0.750000
v 1.000000 0.000000 -0.900000
v 1.000000 -0.000000 0.900000
v 0.800000 0.000000 -0.750000
v -0.800000 0.000000 -0.750000
v -0.800000 0.375000 -0.649519
v 0.800000 0.375000 -0.649519
v 0.800000 0.649519 -0.375001
v -0.800000 0.649519 -0.375000
v 0.800000 0.000000 -0.900000
v 0.800000 0.449999 -0.779423
v 1.000000 0.449999 -0.779423
v 0.800000 0.779422 -0.450001
v 0.800000 0.900000 0.000000
v 1.000000 0.779422 -0.450001
v 0.800000 -0.000000 0.900000
v 0.800000 0.450000 0.779423
v 0.800000 0.779423 0.450000
v 1.000000 0.900000 0.000000
v 1.000000 0.779423 0.450000
v 1.000000 0.450000 0.779423
v -0.800000 -0.000000 0.900000
v -1.000000 -0.000000 0.900000
v -0.800000 0.450000 0.779423
v -0.800000 0.779423 0.450000
v -0.800000 0.900000 0.000000
v -0.800000 0.779423 -0.450000
v -0.800000 0.450000 -0.779423
v -0.800000 0.000000 -0.900000
v -1.000000 0.000000 -0.900000
v -1.000000 0.450000 0.779423
v -1.000000 0.779423 0.450000
v -1.000000 0.900000 0.000000
v -1.000000 0.779423 -0.450000
v -1.000000 0.450000 -0.779423
v 0.000000 0.750000 -0.800000
v 0.000000 0.750000 0.800000
v 0.375000 0.649519 0.800000
v 0.375000 0.649519 -0.800000
v 0.649519 0.375000 0.800000
v 0.649519 0.375000 -0.800000
v 0.750000 -0.000000 0.800000
v 0.750000 0.000000 -0.800000
v -0.900000 0.000000 -1.000000
v 0.900000 0.000000 -1.000000
v -0.750000 0.000000 -0.800000
v -0.750000 -0.000000 0.800000
v -0.649519 0.375000 0.800000
v -0.649519 0.375000 -0.800000
v -0.375000 0.649519 -0.800000
v -0.375000 0.649519 0.800000
v -0.900000 0.000000 -0.800000
v -0.779423 0.449999 -0.800000
v -0.779423 0.449999 -1.000000
v -0.450001 0.779422 -0.800000
v 0.000000 0.900000 -0.800000
v -0.450001 0.779422 -1.000000
v 0.900000 0.000000 -0.800000
v 0.779423 0.450000 -0.800000
v 0.450000 0.779423 -0.800000
v 0.000000 0.900000 -1.000000
v 0.450000 0.779423 -1.000000
v 0.779423 0.450000 -1.000000
v 0.900000 -0.000000 0.800000
v 0.900000 -0.000000 1.000000
v 0.779423 0.450000 0.800000
v 0.450000 0.779423 0.800000
v 0.000000 0.900000 0.800000
v -0.450001 0.779423 0.800000
v -0.779423 0.450000 0.800000
v -0.900000 -0.000000 0.800000
v -0.900000 -0.000000 1.000000
v 0.779423 0.450000 1.000000
v 0.450000 0.779423 1.000000
v 0.000000 0.900000 1.000000
v -0.450001 0.779423 1.000000
v -0.779423 0.450000 1.000000
vn 0.000000 0.965900 0.258800
vn 0.000000 0.707100 0.707100
vn 0.000000 0.258800 0.965900
vn 0.000000 0.258800 -0.965900
vn -0.000000 0.965900 -0.258800
vn -0.000000 0.707100 -0.707100
vn -1.000000 0.000000 0.000000
vn 1.000000 0.000000 0.000000
vn 0.258800 0.965900 0.000000
vn 0.707100 0.707100 0.000000
vn 0.965900 0.258800 0.000000
vn -0.965900 0.258800 0.000000
vn -0.258800 0.965900 0.000000
vn -0.707100 0.707100 0.000000
vn 0.000000 -0.000000 1.000000
vn 0.000000 0.000000 -1.000000
s 1
f 1//1 2//1 3//1 4//1
f 4//2 3//2 5//2 6//2
f 6//3 5//3 7//3 8//3
f 11//4 12//4 13//4 14//4
f 15//5 16//5 2//5 1//5
f 14//6 13//6 16//6 15//6
f 17//7 11//7 14//7 18//7
f 18//4 19//4 9//4 17//4
f 20//7 18//7 14//7 15//7
f 21//7 20//7 15//7 1//7
f 20//6 22//6 19//6 18//6
f 23//7 24//7 6//7 8//7
f 24//7 25//7 4//7 6//7
f 4//7 25//7 21//7 1//7
f 22//5 20//5 21//5 26//5
f 27//1 26//1 21//1 25//1
f 28//2 27//2 25//2 24//2
f 10//3 28//3 24//3 23//3
f 19//8 22//8 26//8 27//8 28//8 10//8 9//8
f 31//8 29//8 7//8 5//8
f 32//8 31//8 5//8 3//8
f 33//8 32//8 3//8 2//8
f 34//8 33//8 2//8 16//8
f 35//8 34//8 16//8 13//8
f 36//8 35//8 13//8 12//8
f 30//3 29//3 31//3 38//3
f 38//2 31//2 32//2 39//2
f 39//1 32//1 33//1 40//1
f 40//5 33//5 34//5 41//5
f 41//6 34//6 35//6 42//6
f 42//4 35//4 36//4 37//4
f 30//7 38//7 39//7 40//7 41//7 42//7 37//7
f 43//9 44//9 45//9 46//9
f 46//10 45//10 47//10 48//10
f 48//11 47//11 49//11 50//11
f 53//12 54//12 55//12 56//12
f 57//13 58//13 44//13 43//13
f 56//14 55//14 58//14 57//14
f 59//15 53//15 56//15 60//15
f 60//12 61//12 51//12 59//12
f 62//15 60//15 56//15 57//15
f 63//15 62//15 57//15 43//15
f 62//14 64//14 61//14 60//14
f 65//15 66//15 48//15 50//15
f 66//15 67//15 46//15 48//15
f 46//15 67//15 63//15 43//15
f 64//13 62//13 63//13 68//13
f 69//9 68//9 63//9 67//9
f 70//10 69//10 67//10 66//10
f 52//11 70//11 66//11 65//11
f 61//16 64//16 68//16 69//16 70//16 52//16 51//16
f 73//16 71//16 49//16 47//16
f 74//16 73//16 47//16 45//16
f 75//16 74//16 45//16 44//16
f 76//16 75//16 44//16 58//16
f 77//16 76//16 58//16 55//16
f 78//16 77//16 55//16 54//16
f 72//11 71//11 73//11 80//11
f 80//10 73//10 74//10 81//10
f 81//9 74//9 75//9 82//9
f 82//13 75//13 76//13 83//13
f 83//14 76//14 77//14 84//14
f 84//12 77//12 78//12 79//12
f 72//15 80//15 81//15 82//15 83//15 84//15 79//15
