# Blender v2.75 (sub 0) OBJ File: ''
# www.blender.org
o Circle
v 0.000000 0.000000 -1.000000
v -0.258819 0.000000 -0.965926
v -0.500000 0.000000 -0.866025
v -0.707107 0.000000 -0.707107
v -0.866025 0.000000 -0.500000
v -0.965926 0.000000 -0.258819
v -1.000000 0.000000 -0.000000
v -0.965926 0.000000 0.258819
v -0.866026 0.000000 0.500000
v -0.707107 0.000000 0.707107
v -0.500000 0.000000 0.866025
v -0.258819 0.000000 0.965926
v -0.000000 0.000000 1.000000
v 0.258819 0.000000 0.965926
v 0.500000 0.000000 0.866026
v 0.707106 0.000000 0.707107
v 0.866025 0.000000 0.500000
v 0.965926 0.000000 0.258819
v 1.000000 0.000000 0.000000
v 0.965926 0.000000 -0.258819
v 0.866026 0.000000 -0.499999
v 0.707107 0.000000 -0.707106
v 0.500001 0.000000 -0.866025
v 0.258820 0.000000 -0.965926
vn 0.000000 1.000000 0.000000
s off
f 2//1 3//1 4//1 5//1 6//1 7//1 8//1 9//1 10//1 11//1 12//1 13//1 14//1 15//1 16//1 17//1 18//1 19//1 20//1 21//1 22//1 23//1 24//1 1//1
