# Blender v2.75 (sub 0) OBJ File: ''
# www.blender.org
o Cylinder.001
v 0.067051 0.250000 -0.495605
v 0.067051 0.450000 -0.495605
v 0.193130 0.450000 -0.461823
v 0.193130 0.250000 -0.461823
v 0.306169 0.450000 -0.396560
v 0.306169 0.250000 -0.396560
v 0.398465 0.450000 -0.304264
v 0.398465 0.250000 -0.304264
v 0.463728 0.450000 -0.191225
v 0.463728 0.250000 -0.191225
v 0.497510 0.450000 -0.065146
v 0.497510 0.250000 -0.065146
v 0.497511 0.450000 0.065380
v 0.497511 0.250000 0.065380
v 0.463728 0.450000 0.191459
v 0.463728 0.250000 0.191459
v 0.398465 0.450000 0.304498
v 0.398465 0.250000 0.304498
v 0.306169 0.450000 0.396794
v 0.306169 0.250000 0.396794
v 0.193130 0.450000 0.462057
v 0.193130 0.250000 0.462057
v 0.067051 0.450000 0.495840
v 0.067051 0.250000 0.495840
v -0.063475 0.250000 0.495840
v -0.063475 0.450000 0.495840
v -0.189553 0.450000 0.462057
v -0.189553 0.250000 0.462057
v -0.302592 0.450000 0.396794
v -0.302592 0.250000 0.396794
v -0.394888 0.450000 0.304498
v -0.394888 0.250000 0.304498
v -0.460152 0.450000 0.191459
v -0.460152 0.250000 0.191459
v -0.493934 0.450000 0.065381
v -0.493934 0.250000 0.065381
v -0.493934 0.450000 -0.065145
v -0.493934 0.250000 -0.065145
v -0.460152 0.450000 -0.191224
v -0.460152 0.250000 -0.191224
v -0.394889 0.450000 -0.304263
v -0.394889 0.250000 -0.304263
v -0.302593 0.450000 -0.396559
v -0.302593 0.250000 -0.396559
v -0.189554 0.450000 -0.461822
v -0.189554 0.250000 -0.461822
v -0.063476 0.250000 -0.495605
v -0.063476 0.450000 -0.495605
v 0.173995 0.500000 -0.415629
v 0.060525 0.500000 -0.446033
v -0.056949 0.500000 -0.446033
v -0.170420 0.500000 -0.415628
v -0.272155 0.500000 -0.356892
v -0.355221 0.500000 -0.273825
v -0.413958 0.500000 -0.172090
v -0.444362 0.500000 -0.058619
v -0.444362 0.500000 0.058854
v -0.413958 0.500000 0.172325
v -0.355221 0.500000 0.274060
v -0.272154 0.500000 0.357127
v -0.170419 0.500000 0.415863
v -0.056948 0.500000 0.446268
v 0.060525 0.500000 0.446267
v 0.173996 0.500000 0.415863
v 0.275731 0.500000 0.357126
v 0.358797 0.500000 0.274060
v 0.417534 0.500000 0.172325
v 0.447938 0.500000 0.058854
v 0.447938 0.500000 -0.058620
v 0.417534 0.500000 -0.172090
v 0.358797 0.500000 -0.273826
v 0.275731 0.500000 -0.356892
v -0.063475 0.250000 0.991560
v -0.063475 -0.000000 0.991560
v 0.067051 -0.000000 0.991560
v 0.067051 0.250000 0.991560
v -0.063475 0.250000 0.495840
v 0.067051 0.250000 0.495840
vn 0.258800 0.000000 -0.965900
vn 0.500000 0.000000 -0.866000
vn 0.707100 0.000000 -0.707100
vn 0.866000 0.000000 -0.500000
vn 0.965900 -0.000000 -0.258800
vn 1.000000 0.000000 -0.000000
vn 0.965900 0.000000 0.258800
vn 0.866000 -0.000000 0.500000
vn 0.707100 -0.000000 0.707100
vn 0.500000 -0.000000 0.866000
vn 0.258800 -0.000000 0.965900
vn -0.258800 -0.000000 0.965900
vn -0.500000 -0.000000 0.866000
vn -0.707100 -0.000000 0.707100
vn -0.866000 -0.000000 0.500000
vn -0.965900 -0.000000 0.258800
vn -1.000000 -0.000000 0.000000
vn -0.965900 0.000000 -0.258800
vn -0.866000 0.000000 -0.500000
vn -0.707100 0.000000 -0.707100
vn -0.500000 0.000000 -0.866000
vn 0.000000 0.000000 -1.000000
vn -0.258800 0.000000 -0.965900
vn 0.000000 -0.000000 1.000000
vn 0.000000 1.000000 0.000000
vn 0.183800 0.704100 0.685900
vn 0.355100 0.704100 0.615000
vn 0.502100 0.704100 0.502100
vn 0.615000 0.704100 0.355100
vn 0.685900 0.704100 0.183800
vn 0.710100 0.704100 -0.000000
vn 0.685900 0.704100 -0.183800
vn 0.615000 0.704100 -0.355100
vn 0.502100 0.704100 -0.502100
vn 0.355100 0.704100 -0.615000
vn 0.183800 0.704100 -0.685900
vn 0.000000 0.704100 -0.710100
vn -0.183800 0.704100 -0.685900
vn -0.355100 0.704100 -0.615000
vn -0.502100 0.704100 -0.502100
vn -0.615000 0.704100 -0.355100
vn -0.685900 0.704100 -0.183800
vn -0.710100 0.704100 0.000000
vn -0.685900 0.704100 0.183800
vn -0.615000 0.704100 0.355100
vn -0.502100 0.704100 0.502100
vn -0.355100 0.704100 0.615000
vn -0.183800 0.704100 0.685900
vn 0.000000 0.704100 0.710100
s 1
f 1//1 2//1 3//1 4//1
f 4//2 3//2 5//2 6//2
f 6//3 5//3 7//3 8//3
f 8//4 7//4 9//4 10//4
f 10//5 9//5 11//5 12//5
f 12//6 11//6 13//6 14//6
f 14//7 13//7 15//7 16//7
f 16//8 15//8 17//8 18//8
f 18//9 17//9 19//9 20//9
f 20//10 19//10 21//10 22//10
f 22//11 21//11 23//11 24//11
f 25//12 26//12 27//12 28//12
f 28//13 27//13 29//13 30//13
f 30//14 29//14 31//14 32//14
f 32//15 31//15 33//15 34//15
f 34//16 33//16 35//16 36//16
f 36//17 35//17 37//17 38//17
f 38//18 37//18 39//18 40//18
f 40//19 39//19 41//19 42//19
f 42//20 41//20 43//20 44//20
f 44//21 43//21 45//21 46//21
f 47//22 48//22 2//22 1//22
f 46//23 45//23 48//23 47//23
f 24//24 23//24 26//24 25//24
f 49//25 50//25 51//25 52//25 53//25 54//25 55//25 56//25 57//25 58//25 59//25 60//25 61//25 62//25 63//25 64//25 65//25 66//25 67//25 68//25 69//25 70//25 71//25 72//25
f 21//26 64//26 63//26 23//26
f 19//27 65//27 64//27 21//27
f 17//28 66//28 65//28 19//28
f 15//29 67//29 66//29 17//29
f 13//30 68//30 67//30 15//30
f 11//31 69//31 68//31 13//31
f 9//32 70//32 69//32 11//32
f 7//33 71//33 70//33 9//33
f 5//34 72//34 71//34 7//34
f 3//35 49//35 72//35 5//35
f 2//36 50//36 49//36 3//36
f 48//37 51//37 50//37 2//37
f 45//38 52//38 51//38 48//38
f 43//39 53//39 52//39 45//39
f 41//40 54//40 53//40 43//40
f 39//41 55//41 54//41 41//41
f 37//42 56//42 55//42 39//42
f 35//43 57//43 56//43 37//43
f 33//44 58//44 57//44 35//44
f 31//45 59//45 58//45 33//45
f 29//46 60//46 59//46 31//46
f 27//47 61//47 60//47 29//47
f 26//48 62//48 61//48 27//48
f 23//49 63//49 62//49 26//49
f 73//24 74//24 75//24 76//24
f 77//25 73//25 76//25 78//25
f 73//17 77//17 74//17
f 76//6 75//6 78//6
